<?xml version="1.0" encoding="UTF-8" standalone="no"?>
<!-- Created with Inkscape (http://www.inkscape.org/) -->

<svg
   width="31.999998"
   height="31.999998"
   viewBox="0 0 8.466666 8.4666661"
   version="1.1"
   id="svg5"
   xml:space="preserve"
   inkscape:export-filename="bitmap.svg"
   inkscape:export-xdpi="96"
   inkscape:export-ydpi="96"
   xmlns:inkscape="http://www.inkscape.org/namespaces/inkscape"
   xmlns:sodipodi="http://sodipodi.sourceforge.net/DTD/sodipodi-0.dtd"
   xmlns="http://www.w3.org/2000/svg"
   xmlns:svg="http://www.w3.org/2000/svg"><sodipodi:namedview
     id="namedview7"
     pagecolor="#ffffff"
     bordercolor="#000000"
     borderopacity="0.25"
     inkscape:showpageshadow="2"
     inkscape:pageopacity="0.0"
     inkscape:pagecheckerboard="0"
     inkscape:deskcolor="#d1d1d1"
     inkscape:document-units="mm"
     showgrid="false"
     inkscape:zoom="5.822615"
     inkscape:cx="32.80313"
     inkscape:cy="23.099587"
     inkscape:window-width="1728"
     inkscape:window-height="1051"
     inkscape:window-x="0"
     inkscape:window-y="38"
     inkscape:window-maximized="1"
     inkscape:current-layer="layer1" /><defs
     id="defs2" /><g
     inkscape:label="Layer 1"
     inkscape:groupmode="layer"
     id="layer1"><path
       style="fill:none;fill-opacity:1;stroke:#fd9f1b;stroke-width:0.575684;stroke-dasharray:none;stroke-opacity:1"
       d="M 4.1771445,0.38023825 C 3.0571852,0.39457487 0.77639766,3.8653643 0.82908697,5.897837 0.86956592,7.4592991 2.6429284,8.0173213 3.8959078,8.0539862 5.3389478,8.0962124 7.6149346,7.5903085 7.6189478,5.7906992 7.622961,3.9910901 5.33816,0.36537597 4.1771445,0.38023825 Z"
       id="path332"
       sodipodi:nodetypes="ssszs" /></g><g
     id="g6303"
     transform="matrix(0.26458333,0,0,0.26458333,38.765487,26.348868)"><g
       id="g6252">
</g><g
       id="g6254">
</g><g
       id="g6256">
</g><g
       id="g6258">
</g><g
       id="g6260">
</g><g
       id="g6262">
</g><g
       id="g6264">
</g><g
       id="g6266">
</g><g
       id="g6268">
</g><g
       id="g6270">
</g><g
       id="g6272">
</g><g
       id="g6274">
</g><g
       id="g6276">
</g><g
       id="g6278">
</g><g
       id="g6280">
</g><path
       d="m -138.10154,-73.42606 c 0.0869,0.0313 0.17795,0.0478 0.26919,0.0478 0.2029,0 0.4059,-0.0774 0.56069,-0.2322 l 0.30757,-0.30756 c 0.20966,0.0889 0.43677,0.13607 0.67139,0.13607 0.42567,0 0.83442,-0.1569 1.15077,-0.44184 l 6.10234,-5.495755 c 0.20153,0.08904 0.4206,0.13702 0.6475,0.13702 0.42841,0 0.83114,-0.166839 1.13416,-0.469656 l 1.53859,-1.53859 c 0.14866,-0.148763 0.23219,-0.35039 0.23219,-0.560789 0,-0.05317 -0.005,-0.105736 -0.0157,-0.157115 0.60276,-0.186197 1.15531,-0.517233 1.61418,-0.976004 1.53257,-1.53256 1.53257,-4.026318 0,-5.558881 -0.74254,-0.74244 -1.72964,-1.151299 -2.77954,-1.151299 -1.05002,0 -2.03712,0.408859 -2.77955,1.151299 -0.46701,0.467011 -0.79097,1.023682 -0.97336,1.61482 -0.0522,-0.01076 -0.10573,-0.01648 -0.15986,-0.01648 -0.2103,0 -0.41193,0.08353 -0.5608,0.232291 l -1.53827,1.538484 c -0.30302,0.302918 -0.46986,0.705751 -0.46986,1.13417 0,0.226897 0.0481,0.446079 0.13703,0.647496 l -5.49587,6.102462 c -0.45983,0.510777 -0.55879,1.224246 -0.30567,1.822047 l -0.30747,0.30746 c -0.14876,0.14866 -0.23228,0.35039 -0.23228,0.5608 0,0.13343 0.0338,0.26316 0.0963,0.3783 0.23704,0.55981 0.9516,1.58558 1.15636,1.09565 z"
       id="path6250-0"
       style="fill:#fd9f1b;fill-opacity:1;stroke-width:0.105731"
       sodipodi:nodetypes="csccsccsccscccsscsccsccccscc" /></g></svg>
