<?xml version="1.0" encoding="UTF-8" standalone="no"?>
<!-- Created with Inkscape (http://www.inkscape.org/) -->

<svg
   width="31.999998"
   height="31.999998"
   viewBox="0 0 8.466666 8.4666661"
   version="1.1"
   id="svg5"
   xml:space="preserve"
   inkscape:export-filename="artist.svg"
   inkscape:export-xdpi="96"
   inkscape:export-ydpi="96"
   xmlns:inkscape="http://www.inkscape.org/namespaces/inkscape"
   xmlns:sodipodi="http://sodipodi.sourceforge.net/DTD/sodipodi-0.dtd"
   xmlns="http://www.w3.org/2000/svg"
   xmlns:svg="http://www.w3.org/2000/svg"><sodipodi:namedview
     id="namedview7"
     pagecolor="#ffffff"
     bordercolor="#000000"
     borderopacity="0.25"
     inkscape:showpageshadow="2"
     inkscape:pageopacity="0.0"
     inkscape:pagecheckerboard="0"
     inkscape:deskcolor="#d1d1d1"
     inkscape:document-units="mm"
     showgrid="false"
     inkscape:zoom="5.822615"
     inkscape:cx="32.80313"
     inkscape:cy="23.099587"
     inkscape:window-width="1728"
     inkscape:window-height="1051"
     inkscape:window-x="0"
     inkscape:window-y="38"
     inkscape:window-maximized="1"
     inkscape:current-layer="layer1" /><defs
     id="defs2" /><g
     inkscape:label="Layer 1"
     inkscape:groupmode="layer"
     id="layer1"><path
       style="fill:none;fill-opacity:1;stroke:#fd9f1b;stroke-width:0.575684;stroke-dasharray:none;stroke-opacity:1"
       d="M 4.1771445,0.38023825 C 3.0571852,0.39457487 0.77639766,3.8653643 0.82908697,5.897837 0.86956592,7.4592991 2.6429284,8.0173213 3.8959078,8.0539862 5.3389478,8.0962124 7.6149346,7.5903085 7.6189478,5.7906992 7.622961,3.9910901 5.33816,0.36537597 4.1771445,0.38023825 Z"
       id="path332"
       sodipodi:nodetypes="ssszs" /></g><g
     id="g7531"
     transform="translate(1.790088,-19.989316)"><path
       class="clr-i-solid clr-i-solid-path-1"
       d="M 1.2962602,23.742818 A 0.13331691,0.13331691 0 0 0 1.4295771,23.609501 V 22.8096 a 0.13331691,0.13331691 0 0 0 -0.2666338,0 v 0.799901 a 0.13331691,0.13331691 0 0 0 0.1333169,0.133317 z"
       id="path7013"
       style="fill:#fd9f1b;fill-opacity:1;stroke-width:0.133317" /><path
       class="clr-i-solid clr-i-solid-path-2"
       d="M 3.4293308,23.742818 A 0.13331691,0.13331691 0 0 0 3.5626477,23.609501 V 22.8096 a 0.13331691,0.13331691 0 0 0 -0.2666338,0 v 0.799901 a 0.13331691,0.13331691 0 0 0 0.1333169,0.133317 z"
       id="path7015"
       style="fill:#fd9f1b;fill-opacity:1;stroke-width:0.133317" /><path
       class="clr-i-solid clr-i-solid-path-3"
       d="M 4.2625615,23.20955 H 3.7292938 v 0.399951 a 0.2932972,0.2932972 0 0 1 -0.5865944,0 V 23.20955 h -1.553142 v 0.399951 a 0.2932972,0.2932972 0 0 1 -0.5865944,0 V 23.20955 H 0.46969538 a 0.2373041,0.2373041 0 0 0 -0.23997044,0.241304 v 2.983633 A 0.2373041,0.2373041 0 0 0 0.46302953,26.67579 H 4.2625615 A 0.2373041,0.2373041 0 0 0 4.4958661,26.434487 V 23.450854 A 0.2373041,0.2373041 0 0 0 4.2625615,23.20955 Z M 3.4213318,24.620043 2.1321572,25.909218 1.4295771,25.201305 A 0.181311,0.181311 0 0 1 1.6828793,24.94267 l 0.4506111,0.450611 1.0292066,-1.029206 a 0.18193985,0.18193985 0 1 1 0.2573016,0.257302 z"
       id="path7017"
       style="fill:#fd9f1b;fill-opacity:1;stroke-width:0.133317" /></g></svg>
