<?xml version="1.0" encoding="UTF-8" standalone="no"?>
<!-- Created with Inkscape (http://www.inkscape.org/) -->

<svg
   width="32"
   height="32"
   viewBox="0 0 8.4666665 8.4666667"
   version="1.1"
   id="svg5"
   xml:space="preserve"
   inkscape:version="1.2.1 (9c6d41e, 2022-07-14)"
   sodipodi:docname="logo-icon.svg"
   xmlns:inkscape="http://www.inkscape.org/namespaces/inkscape"
   xmlns:sodipodi="http://sodipodi.sourceforge.net/DTD/sodipodi-0.dtd"
   xmlns="http://www.w3.org/2000/svg"
   xmlns:svg="http://www.w3.org/2000/svg"><sodipodi:namedview
     id="namedview7"
     pagecolor="#ffffff"
     bordercolor="#000000"
     borderopacity="0.25"
     inkscape:showpageshadow="2"
     inkscape:pageopacity="0.0"
     inkscape:pagecheckerboard="0"
     inkscape:deskcolor="#d1d1d1"
     inkscape:document-units="mm"
     showgrid="false"
     inkscape:zoom="12.364303"
     inkscape:cx="18.440182"
     inkscape:cy="19.774669"
     inkscape:window-width="1728"
     inkscape:window-height="991"
     inkscape:window-x="0"
     inkscape:window-y="38"
     inkscape:window-maximized="1"
     inkscape:current-layer="layer1" /><defs
     id="defs2" /><g
     inkscape:label="Layer 1"
     inkscape:groupmode="layer"
     id="layer1"><path
       style="fill:#fa9d24;fill-opacity:1;stroke-width:0.0281774"
       d="M 3.4577385,8.3828701 C 2.0548734,8.1923412 1.1121328,7.6767109 0.7600341,6.9073659 0.62925381,6.6216071 0.59005365,6.3825584 0.60722474,5.9755108 0.64041143,5.1888074 0.94141977,4.3199328 1.5928606,3.1304268 2.4775873,1.5149509 3.5379948,0.2323505 4.1074348,0.08896413 4.5298607,-0.0174041 5.1371913,0.50522992 5.9708863,1.6925442 7.1533024,3.3764942 7.8670016,5.0270868 7.8674137,6.0786975 7.8678397,7.2085322 7.1012455,7.942074 5.561631,8.2850173 4.9310541,8.4254758 4.0672577,8.4656514 3.4577385,8.3828701 Z M 4.9530831,8.2453948 C 5.6134952,8.1582909 6.1723004,7.996045 6.6417863,7.75509 6.9041808,7.6204204 6.9911347,7.5570798 7.2085128,7.3422659 7.4926912,7.0614388 7.6033015,6.8718505 7.6822522,6.5302664 7.8576202,5.7715199 7.471133,4.449556 6.671924,3.0744817 6.5701115,2.8993083 6.4868104,2.7513854 6.4868104,2.7457637 6.4868104,2.7295248 6.1532491,2.2111959 5.9540938,1.9179634 5.3923205,1.0908172 4.8817682,0.52291135 4.4971404,0.29733994 4.2428387,0.1482007 4.0580393,0.19327994 3.6879888,0.49472045 3.1194104,0.95788134 2.152139,2.337023 1.5129292,3.5959339 0.75600765,5.0866755 0.55371741,6.1916074 0.90854576,6.8971417 1.255725,7.5874666 2.1682255,8.0647666 3.4843266,8.2444509 3.8427677,8.293388 4.5855843,8.2938653 4.9530831,8.2453987 Z M 2.9787221,7.1326144 C 2.8262893,7.0955047 2.7120646,7.0184203 2.633428,6.899593 L 2.5560609,6.7826828 V 5.2308672 c 0,-1.4546178 0.00333,-1.5604699 0.053293,-1.6899859 0.096766,-0.2508751 0.3127517,-0.4389148 0.5884551,-0.5123139 0.1760805,-0.046877 1.1061715,-0.054945 1.2644968,-0.010969 0.1275614,0.035431 0.2963447,0.2163434 0.3197944,0.3427766 0.00951,0.051292 0.0134,0.5266355 0.00864,1.0563196 C 4.782452,5.3382852 4.7795755,5.3831053 4.7239818,5.4575179 4.5881775,5.639291 4.5521814,5.6502241 4.039038,5.6655593 3.5189158,5.6811031 3.4637279,5.6977785 3.3578781,5.8713765 3.308015,5.9531546 3.3029638,6.0163977 3.302869,6.5601922 l -1.054e-4,0.59877 -0.1197541,-0.00288 C 3.1171452,7.1544915 3.0252156,7.1439333 2.9787232,7.1326147 Z M 3.6690685,6.9185491 c 0,-0.2714408 0.041164,-0.4009479 0.1501399,-0.4723515 0.060862,-0.039878 0.1463667,-0.048131 0.5039942,-0.048644 0.356798,-5.112e-4 0.4502355,-0.00949 0.5445719,-0.052345 0.1520952,-0.069087 0.2590461,-0.2018331 0.2809377,-0.348698 0.00981,-0.065791 0.013746,-0.6902128 0.00875,-1.3876038 L 5.1483822,3.3409228 5.0640112,3.185947 C 5.0176072,3.10071 4.9753412,3.0214614 4.9700872,3.0098382 c -0.019155,-0.04237 0.1942564,-0.019641 0.3449405,0.036736 0.2029647,0.075939 0.4066919,0.2625182 0.510628,0.4676479 l 0.083517,0.1648293 0.00823,1.4578002 C 5.922889,6.1079988 5.9155833,6.6319773 5.895531,6.7064615 5.8368744,6.9242954 5.6597204,7.0649235 5.3653703,7.127313 5.27564,7.146332 4.9073744,7.1589622 4.4425595,7.1589622 H 3.6690674 Z M 3.2464073,2.4805204 c 0,-0.2568334 0.038336,-0.3436979 0.1722924,-0.3903955 0.1088712,-0.037952 1.5157229,-0.039082 1.6240935,-0.0013 0.126489,0.044094 0.1760337,0.1578225 0.1760337,0.4040827 V 2.7069304 H 4.2326171 3.2464073 V 2.4805198 Z"
       id="path362"
       sodipodi:nodetypes="sssscccsscsscsscscsssccsscscsscssssscssssssscccsssscscsscscscsccccc" /></g></svg>
